<svg xmlns="http://www.w3.org/2000/svg" viewBox="0 0 40 40" id="Starbucks">
  <path d="M21.49 11.58a8.23 8.23 0 0 0-1.5-.13 8.38 8.38 0 0 0-1.51.13.06.06 0 0 1-.05-.11L20 10.28l1.55 1.19a.06.06 0 0 1-.05.11M18.89 19a.17.17 0 0 0-.11.1c.32.24.54.8 1.19.8s.88-.56 1.19-.8a.15.15 0 0 0-.1-.1 5.94 5.94 0 0 1-2.17 0m1.11-.91c-.17 0-.22-.06-.34-.06a.67.67 0 0 0-.4.18.18.18 0 0 0 .05.11c.26 0 .39.19.69.19s.44-.15.7-.19a.14.14 0 0 0 0-.11.6.6 0 0 0-.4-.18c-.12 0-.16.06-.35.06m15 2.84c0 .35-.05.72-.09 1.06-1.7.28-2.31-1.22-4-1.16A10.84 10.84 0 0 1 31.1 22c1.44 0 2 1.34 3.62 1.13-.09.41-.19.82-.3 1.22-1.27.13-1.71-1.13-3.18-1.1v.99c1.25 0 1.66 1.14 2.85 1.08-.15.41-.32.8-.5 1.19-.86 0-1.15-1.13-2.44-1q-.06.42-.15.84c1.13-.08 1.37 1 2.18 1-.21.38-.43.74-.66 1.1-.48-.25-.9-1-1.8-1.08.09-.29.18-.58.24-.87a3.79 3.79 0 0 1-2.49-1c.25-1.43-2-2.88-2-3.93s.57-1.76.57-3.29A4.79 4.79 0 0 0 25.7 15a3.42 3.42 0 0 0-.52-.42A5.39 5.39 0 0 1 26.53 18c0 1.44-.67 2.2-.67 3.53s1.95 2.48 1.95 3.85a4.49 4.49 0 0 1-.73 2.1 4.38 4.38 0 0 0 2.74 1.34.44.44 0 0 0 .46-.25c.07-.17.14-.33.2-.5.79 0 1.15.75 1.58 1-.24.32-.49.64-.76.94A2.85 2.85 0 0 0 30 29c-.1.21-.22.4-.33.6a2.52 2.52 0 0 1 1.1 1c-.28.29-.58.57-.89.85a3.27 3.27 0 0 0-.82-.89l-.38.5a2.62 2.62 0 0 1 .7.82c-.36.29-.72.56-1.1.81-.19-1.53-2.27-2.57-1.71-4.34a2.28 2.28 0 0 0-.41 1.17c0 1.28 1.37 2.31 1.47 3.57-.28.17-.57.33-.87.49-.05-1.41-1.5-2.94-1.5-4.08S27 26.88 27 25.36s-1.94-2.57-1.94-3.9.82-2.09.82-3.8a4.55 4.55 0 0 0-1.5-3.31 2.68 2.68 0 0 0-.52-.36 5 5 0 0 1 1.37 3.41c0 1.61-.95 2.49-.95 4.06s1.89 2.45 1.89 3.9-1.77 2.7-1.77 4.2S26 32.3 26 33.92a10 10 0 0 1-1 .4c.2-1.63-1.56-3.33-1.56-4.67s1.84-2.72 1.84-4.29-1.87-2.3-1.87-3.92 1.16-2.52 1.16-4.31a4.32 4.32 0 0 0-1.7-3.41l-.06-.06c-.09-.07-.18 0-.1.11a4.61 4.61 0 0 1 1.08 3.11c0 1.63-1.31 3-1.31 4.54 0 1.88 1.77 2.41 1.77 3.94s-1.9 2.76-1.9 4.39 1.8 3.19 1.48 4.93c-.35.09-.72.17-1.09.24.35-2.17-1.41-3.74-1.41-5.15s2-2.92 2-4.41-1.41-1.87-1.6-3.33a.33.33 0 0 0-.4-.3A5 5 0 0 1 20 22a4.89 4.89 0 0 1-1.23-.24.34.34 0 0 0-.4.3c-.19 1.46-1.6 1.91-1.6 3.33s2 2.87 2 4.41-1.76 3-1.41 5.15c-.37-.07-.74-.15-1.09-.24-.31-1.75 1.48-3.42 1.48-4.93s-1.9-2.86-1.9-4.39 1.77-2.06 1.77-3.94c0-1.58-1.31-2.91-1.31-4.54a4.61 4.61 0 0 1 1.08-3.11c.07-.09 0-.17-.1-.11l-.06.06a4.35 4.35 0 0 0-1.7 3.41c0 1.79 1.16 2.69 1.16 4.31s-1.87 2.35-1.87 3.92 1.84 2.84 1.84 4.29-1.76 3-1.56 4.67c-.35-.12-.69-.25-1-.4 0-1.62 1.58-3 1.58-4.36s-1.77-2.73-1.77-4.2 1.89-2.33 1.89-3.9-1-2.45-1-4.06A5 5 0 0 1 16.15 14a3 3 0 0 0-.52.36 4.56 4.56 0 0 0-1.5 3.31c0 1.71.82 2.47.82 3.8S13 23.84 13 25.36s1.69 2.8 1.69 4.09-1.45 2.68-1.5 4.08c-.29-.16-.58-.31-.87-.49.11-1.27 1.48-2.29 1.48-3.57a2.36 2.36 0 0 0-.4-1.17c.55 1.77-1.52 2.82-1.71 4.34q-.57-.37-1.11-.81a2.75 2.75 0 0 1 .7-.82c-.13-.17-.26-.32-.38-.5a2.77 2.77 0 0 0-.82.89c-.31-.27-.61-.56-.89-.85.27-.33.61-.83 1.1-1q-.17-.29-.33-.6a2.85 2.85 0 0 0-1.26 1 11.55 11.55 0 0 1-.7-.87c.44-.29.8-1 1.59-1l.21.5a.41.41 0 0 0 .45.25A4.43 4.43 0 0 0 13 27.45a4.26 4.26 0 0 1-.73-2.1c0-1.37 1.94-2.52 1.94-3.85s-.67-2.09-.67-3.53a5.35 5.35 0 0 1 1.36-3.37 2.59 2.59 0 0 0-.52.42 4.71 4.71 0 0 0-1.38 3.2c0 1.53.57 2.15.57 3.29s-2.22 2.5-2 3.93a3.75 3.75 0 0 1-2.51 1c.08.29.15.58.24.87-.91.05-1.33.83-1.8 1.08a12.21 12.21 0 0 1-.65-1.1c.81-.09 1-1.13 2.17-1q-.09-.42-.15-.84c-1.3-.08-1.59 1-2.44 1-.18-.39-.34-.78-.5-1.19 1.19.06 1.6-1.1 2.84-1.08v-.99c-1.47 0-1.91 1.23-3.18 1.1-.11-.39-.21-.8-.3-1.22 1.6.21 2.18-1.15 3.62-1.13a10.84 10.84 0 0 1 .25-1.13c-1.74-.08-2.35 1.44-4 1.16-.05-.35-.07-.71-.1-1.06 2 .22 2.72-1.4 4.52-1.2a10.35 10.35 0 0 1 .6-1.26C7.87 18.08 7.1 20 5 19.68a15 15 0 0 1 30 0c-2.1.29-2.87-1.6-5.13-1.2a11 11 0 0 1 .6 1.25c1.8-.21 2.53 1.42 4.52 1.19m-21.47-6.3a3.9 3.9 0 0 0-3.6.39 3.92 3.92 0 0 0-1.58-2.58.14.14 0 0 0-.23.12c.18 2.26-1.14 4.21-2.76 5.93 1.68.5 3.09-1.65 5.24-.9a11.78 11.78 0 0 1 2.93-3M20 13.27a2.92 2.92 0 0 0-2.87 1.81c0 .08 0 .13.1.09a2.11 2.11 0 0 1 .85-.16 1.75 1.75 0 0 1 1.37.57 2.5 2.5 0 0 1 0 1.41c-.23 0-.32-.22-.55-.22s-.4.16-.8.16-.43-.19-.68-.19-.42.26-.42.66c0 1.6 1.46 3.69 3 3.69s3-2.13 3-3.69c0-.36-.07-.65-.38-.68a.94.94 0 0 1-.65.21c-.4 0-.5-.16-.73-.16s-.25.58-.58.62a2.83 2.83 0 0 1 0-1.8A1.71 1.71 0 0 1 21.9 15a2.18 2.18 0 0 1 .85.16c.09 0 .12 0 .1-.09a2.92 2.92 0 0 0-2.85-1.8m2.2 2.23a1.29 1.29 0 0 0-1 .38.31.31 0 0 0 0 .25c.61-.2 1.14-.21 1.41.08a.49.49 0 0 0 .17-.37c0-.2-.21-.34-.62-.34m-4.88.71a1.56 1.56 0 0 1 1.54-.05c0-.32-.54-.67-1.11-.67s-.62.14-.62.34a.52.52 0 0 0 .19.38m9.62-5.27A5 5 0 0 0 24.1 12a10.73 10.73 0 0 1 1.28-2.5A5.45 5.45 0 0 0 22 11l-.67-1.76L22.76 8l-2-.14L20 6l-.79 1.85-2 .14 1.48 1.31L18 11a5.52 5.52 0 0 0-3.43-1.5 11.13 11.13 0 0 1 1.28 2.5A5 5 0 0 0 13 10.94a14 14 0 0 1 1.69 2.74.17.17 0 0 0 .26.09 11.25 11.25 0 0 1 10 0 .17.17 0 0 0 .26-.09 13.13 13.13 0 0 1 1.69-2.74m2.4 6.65c2.17-.75 3.58 1.39 5.25.9-1.62-1.72-2.93-3.67-2.75-5.93a.13.13 0 0 0-.22-.12A4 4 0 0 0 30 15a3.92 3.92 0 0 0-3.6-.39 11.34 11.34 0 0 1 2.9 3" fill="#34a853" class="color000000 svgShape"></path>
</svg>
